<?xml version="1.0" encoding="UTF-8" standalone="no"?>
<svg
   xmlns:dc="http://purl.org/dc/elements/1.1/"
   xmlns:cc="http://creativecommons.org/ns#"
   xmlns:rdf="http://www.w3.org/1999/02/22-rdf-syntax-ns#"
   xmlns:svg="http://www.w3.org/2000/svg"
   xmlns="http://www.w3.org/2000/svg"
   xmlns:sodipodi="http://sodipodi.sourceforge.net/DTD/sodipodi-0.dtd"
   xmlns:inkscape="http://www.inkscape.org/namespaces/inkscape"
   id="图层_1"
   data-name="图层 1"
   viewBox="0 0 2000 2000"
   version="1.1"
   sodipodi:docname="moonba.svg"
   inkscape:version="1.0.1 (c497b03c, 2020-09-10)">
  <metadata
     id="metadata960">
    <rdf:RDF>
      <cc:Work
         rdf:about="">
        <dc:format>image/svg+xml</dc:format>
        <dc:type
           rdf:resource="http://purl.org/dc/dcmitype/StillImage" />
      </cc:Work>
    </rdf:RDF>
  </metadata>
  <sodipodi:namedview
     pagecolor="#ffffff"
     bordercolor="#666666"
     borderopacity="1"
     objecttolerance="10"
     gridtolerance="10"
     guidetolerance="10"
     inkscape:pageopacity="0"
     inkscape:pageshadow="2"
     inkscape:window-width="1792"
     inkscape:window-height="1120"
     id="namedview958"
     showgrid="false"
     inkscape:zoom="0.356"
     inkscape:cx="1000"
     inkscape:cy="1000"
     inkscape:window-x="0"
     inkscape:window-y="0"
     inkscape:window-maximized="0"
     inkscape:current-layer="图层_1" />
  <defs
     id="defs835">
    <style
       id="style833">.cls-1{fill:#fabf2f;}.cls-2{fill:#c58b2a;}.cls-3{fill:#fff;}</style>
  </defs>
  <rect
     class="cls-1"
     x="-183.4333"
     y="1341.6632"
     width="658.21716"
     height="14.163773"
     transform="matrix(0.77266145,-0.63481831,0.62299131,0.78222876,0,0)"
     id="rect837"
     style="stroke-width:1.15341" />
  <rect
     class="cls-1"
     x="-183.43698"
     y="1411.2783"
     width="658.21716"
     height="14.175325"
     transform="matrix(0.77266145,-0.63481831,0.62299131,0.78222876,0,0)"
     id="rect839"
     style="stroke-width:1.15341" />
  <path
     class="cls-2"
     d="m 1851.7286,269.05415 c 0,0 -247.8323,17.935 -426.2679,164.48364 -125.2665,102.91416 -226.8896,252.00834 -226.8896,252.00834 l 15.644,24.78123 -26.3213,21.61964 c -3.1471,27.0943 27.6259,59.81435 27.6259,59.81435 0,0 25.0625,37.40431 51.8072,39.93823 l 26.3213,-21.63127 19.8669,21.95672 c 0,0 165.5152,-71.01937 290.7818,-173.93352 178.3783,-146.56027 247.4317,-389.03736 247.4317,-389.03736 z"
     id="path841"
     style="stroke-width:1.15334" />
  <polygon
     class="cls-2"
     points="1047.39,678.17 1157.77,588.88 1179.49,622.75 1362.72,393.95 1211.99,378.03 "
     id="polygon843"
     transform="matrix(1.1444046,0,0,1.1623465,-135.59876,-13.523906)" />
  <path
     class="cls-3"
     d="m 1791.6359,311.54953 -7.4844,1.77839 c -4.8866,1.16235 -12.0391,2.84775 -21.0685,5.21894 -9.0294,2.37118 -20.0271,5.33517 -32.4896,9.05468 -12.4626,3.71951 -26.493,8.13642 -41.6106,13.4251 -7.5531,2.65015 -15.4151,5.40491 -23.4488,8.55487 -8.0338,3.14996 -16.365,6.28829 -24.8107,9.8567 -16.9487,6.97408 -34.5496,14.87803 -52.4939,23.61888 -17.8413,8.95006 -36.0373,18.59754 -53.8671,29.55847 -8.9264,5.4514 -17.8985,10.97255 -26.5845,17.01675 -8.8577,5.75361 -17.3835,12.07678 -25.875,18.42319 -8.6517,6.13719 -16.5367,13.26237 -24.7878,19.81801 -7.7133,6.52076 -15.7699,14.22712 -23.529,21.25932 l -11.6729,10.71683 c -3.685,3.6149 -7.3471,7.25304 -11.0092,10.85632 l -21.5377,21.21282 c -13.8244,14.50608 -27.8433,27.82657 -40.4318,41.2633 -12.7601,13.23913 -24.7878,25.82734 -35.694,37.69489 -11.0778,11.62347 -20.954,22.67738 -29.8575,32.31324 l -23.014,25.08343 c -6.34,6.97408 -11.341,12.49523 -14.7513,16.27285 l -5.3101,5.70713 -1.7624,-1.3367 c 0,0 5.4016,-9.4615 15.7356,-25.46701 5.1727,-7.95045 11.444,-17.73741 19.1459,-28.48912 7.7018,-10.7517 16.3306,-23.01446 26.5044,-35.73053 l 15.7585,-20.00398 17.6696,-20.71301 c 3.0555,-3.55678 6.1454,-7.13681 9.2582,-10.78658 l 9.9563,-10.63547 c 6.6719,-7.20655 13.7329,-14.37822 20.7481,-21.73588 q 11.2838,-10.46112 22.8881,-21.31743 c 3.8909,-3.56841 7.7361,-7.28791 11.753,-10.72846 l 12.2337,-10.0543 c 8.3427,-6.75323 16.0903,-13.44835 25.0281,-20.44567 8.8234,-6.39291 17.2691,-13.34374 26.4587,-19.26008 8.9835,-6.19531 17.9785,-12.3325 27.3054,-17.90014 9.1553,-5.81173 18.5165,-11.13528 27.8434,-16.34259 18.6538,-10.46112 37.5594,-19.58554 56.0758,-27.96606 18.5966,-8.13642 36.621,-15.64518 54.1762,-21.71263 q 13.0805,-4.73075 25.5431,-8.64786 c 8.2626,-2.75476 16.3421,-5.12594 24.0325,-7.36927 15.4838,-4.5564 29.7545,-8.26429 42.5146,-11.32126 12.7601,-3.05697 23.8494,-5.54439 33.0504,-7.3809 9.201,-1.8365 16.4451,-3.27781 21.3775,-4.13795 l 7.5759,-1.39482 z"
     id="path845"
     style="stroke-width:1.15334" />
  <polygon
     class="cls-2"
     points="1167.11,826.17 1277.49,736.88 1248.9,708.56 1510.94,577.19 1495.02,727.92 "
     id="polygon847"
     transform="matrix(1.1444046,0,0,1.1623465,-135.59876,-13.523906)" />
  <polygon
     class="cls-3"
     points="1174.6,480.28 1230.64,408.72 1319.86,402.03 1220.15,394.07 "
     id="polygon849"
     transform="matrix(1.1444046,0,0,1.1623465,-135.59876,-13.523906)" />
  <path
     class="cls-1"
     d="m 555.08376,931.61488 c 38.10868,-29.68633 102.99642,-10.67034 145.90015,43.19279 2.28881,2.88262 4.4174,5.81174 6.50022,8.79897 10.67729,-30.88355 4.47462,-68.72955 -19.29466,-98.57861 -23.27719,-29.22139 -57.43767,-43.23929 -88.85158,-39.93822 -32.93596,-27.43138 -78.19717,-30.88355 -108.95876,-5.62576 -29.28532,24.0722 -36.27763,66.64895 -20.0042,103.84404 1.30462,-1.26696 2.55203,-2.60366 3.98253,-3.77763 21.12571,-17.36546 50.9489,-19.14385 80.7263,-7.91558 z"
     id="path851"
     style="stroke-width:1.15334" />
  <path
     class="cls-1"
     d="m 1007.032,1414.1514 c 0.2976,-0.2325 0.618,-0.4068 0.9156,-0.6393 29.1251,-23.9327 26.6761,-76.0407 -5.4588,-116.3857 -22.73936,-28.5589 -54.23338,-43.495 -81.04678,-41.3447 17.04018,36.1722 12.32524,78.0516 -13.26365,104.4949 l -0.7782,-0.2208 c 19.19167,-25.5716 14.15629,-69.671 -13.83585,-104.8088 -26.75618,-33.6034 -65.7346,-48.0514 -94.12728,-37.3229 a 128.37931,130.39203 0 0 0 -10.71163,-11.6235 c 28.38124,-17.0284 64.93352,-14.4712 94.47061,5.1143 -1.02997,-20.3991 -9.59011,-43.0068 -25.42867,-62.9294 a 128.60819,130.6245 0 0 0 -10.29965,-11.3561 c -1.96837,10.1473 -8.45715,19.4112 -20.85105,24.6766 -11.02062,4.6494 -19.45488,18.4232 -28.95344,26.3271 q -7.69039,6.3813 -15.58679,12.2047 c -21.89246,-18.121 -47.34402,-25.9436 -68.16074,-21.1431 a 91.266269,92.697131 0 0 0 -3.58198,-22.0846 c 4.57762,-3.1616 9.39556,-6.1023 13.97318,-8.9384 10.0822,-6.207 29.37686,-16.7727 37.04438,-29.1517 a 34.332139,34.870394 0 0 1 14.15628,-13.3554 129.2605,131.28703 0 0 0 -39.45907,-47.9932 c 2.73513,29.4422 -5.43592,56.0367 -25.1769,72.2514 a 64.944963,65.963162 0 0 1 -8.89203,6.021 c 27.3055,-34.3009 20.13008,-95.9401 -19.24888,-145.37471 C 648.66173,947.79474 600.7684,927.08173 563.3807,935.16004 a 149.04726,151.384 0 0 1 27.7747,16.85402 c -34.93868,-18.98112 -72.22338,-20.37593 -97.2744,0.23247 -37.92556,31.16251 -33.49672,100.57787 9.8991,155.06867 a 171.66069,174.35197 0 0 0 30.44117,29.8142 145.65982,147.94346 0 0 0 34.81279,19.8296 119.63606,121.5117 0 0 0 20.98838,38.8689 124.9461,126.90499 0 0 0 10.52852,11.6234 l 187.83113,235.8401 c 28.02647,35.1959 69.37381,49.795 98.8079,37.0905 1.61361,2.3247 3.29588,4.6494 5.0926,6.8927 32.13488,40.3451 81.7906,53.6539 110.89281,29.7328 25.978,-21.2941 26.7791,-65.0216 3.8566,-102.856 z"
     id="path853"
     style="stroke-width:1.15334" />
  <path
     class="cls-1"
     d="M 648.97072,1257.502 C 433.41066,986.84958 474.68934,589.96638 741.16396,371.03842 A 618.4706,628.1669 0 0 1 1185.6279,233.219 C 952.9017,166.96526 693.19052,212.38976 490.97422,378.51231 159.40586,650.93145 108.04498,1144.7776 376.2591,1481.5791 c 268.21411,336.8015 754.4259,388.9444 1086.04,116.5136 202.2049,-166.1341 300.1888,-414.609 285.0483,-659.60835 a 618.49348,628.19015 0 0 1 -225.5621,412.63305 c -266.509,218.9628 -657.26597,177.0369 -872.81458,-93.6154 z"
     id="path855"
     style="stroke-width:1.15334" />
  <path
     class="cls-2"
     d="M 401.36733,665.57702 A 76.228793,77.423898 0 0 0 351.27674,527.94357 q -4.7035,6.57889 -9.25823,13.22751 c 52.7685,-4.07984 97.57194,71.05424 45.44431,113.90995 -37.92557,31.16251 -81.59605,7.7761 -96.85097,-27.12917 q -2.90678,5.6955 -5.72202,11.42587 a 76.08002,77.272793 0 0 0 116.46606,26.22254 z"
     id="path857"
     style="stroke-width:1.15334" />
  <path
     class="cls-2"
     d="m 701.80788,1555.2719 a 92.39923,93.847854 0 0 0 -161.92181,80.0275 q 16.82275,11.7397 34.14904,22.4798 c -14.19062,-27.3732 -12.97755,-62.3482 17.68105,-87.5363 72.09749,-59.2797 162.57412,54.3397 90.40796,113.5845 a 71.387961,72.507173 0 0 1 -31.88311,15.4592 c 2.92968,1.3716 5.85935,2.7432 8.78903,4.0799 a 92.261901,93.708372 0 0 0 42.73207,-148.0946 z"
     id="path859"
     style="stroke-width:1.15334" />
  <path
     class="cls-2"
     d="m 425.77749,1286.8512 a 62.804926,63.789574 0 1 0 88.32514,9.4731 62.804926,63.789574 0 0 0 -88.32514,-9.4731 z m 62.5646,84.6305 c -49.67861,40.8099 -111.99144,-37.4276 -62.31284,-78.2492 49.67861,-40.8216 111.99144,37.4276 62.31284,78.2492 z"
     id="path861"
     style="stroke-width:1.15334" />
  <path
     class="cls-2"
     d="m 492.19873,1186.0177 a 29.75452,30.221008 0 1 0 41.82799,4.4866 29.75452,30.221008 0 0 0 -41.82799,-4.4866 z m 29.62864,40.0777 c -23.52896,19.3298 -53.03171,-17.7258 -29.50276,-37.0556 23.52896,-19.3299 52.99738,17.6676 29.50276,36.9975 z"
     id="path863"
     style="stroke-width:1.15334" />
  <path
     class="cls-2"
     d="m 866.49915,1514.6014 a 67.302436,68.357596 0 1 0 94.65371,10.1473 67.290992,68.345972 0 0 0 -94.65371,-10.1473 z m 82.71757,96.9862 c -54.83987,45.0525 -123.5957,-41.3214 -68.79016,-86.3856 54.80553,-45.0642 123.64144,41.3214 68.79016,86.3856 z"
     id="path865"
     style="stroke-width:1.15334" />
  <path
     class="cls-2"
     d="m 1188.157,1622.3974 a 42.125534,42.785974 0 1 0 59.2458,6.358 42.125534,42.785974 0 0 0 -59.2458,-6.358 z m 48.5571,57.5943 c -31.6199,25.9784 -71.2964,-23.8281 -39.6651,-49.8182 31.6314,-25.9901 71.2964,23.8281 39.6651,49.8414 z"
     id="path867"
     style="stroke-width:1.15334" />
  <path
     class="cls-2"
     d="m 1272.3165,1508.9989 a 33.874377,34.405455 0 1 0 47.6416,5.1027 33.874377,34.405455 0 0 0 -47.6416,-5.1027 z m 38.6923,52.631 c -23.0483,18.9346 -51.9674,-17.4352 -28.9191,-36.3117 23.0483,-18.8765 51.9789,17.3655 28.9191,36.3117 z"
     id="path869"
     style="stroke-width:1.15334" />
  <path
     class="cls-2"
     d="m 347.90075,1052.8011 a 49.747269,50.527201 0 1 0 69.95745,7.5088 49.735825,50.515578 0 0 0 -69.95745,-7.5088 z m 50.93745,65.8005 c -37.33048,30.6627 -84.14807,-28.1172 -46.81759,-58.7799 37.33048,-30.6627 84.10229,28.152 46.81759,58.7799 z"
     id="path871"
     style="stroke-width:1.15334" />
  <path
     class="cls-2"
     d="m 514.96094,503.40644 a 29.75452,30.221008 0 1 0 41.8051,4.48666 29.75452,30.221008 0 0 0 -41.8051,-4.48666 z m 29.62863,40.07771 c -23.51751,19.32982 -53.05459,-17.67929 -29.50275,-37.05561 23.55185,-19.37631 53.03171,17.72578 29.50275,37.05561 z"
     id="path873"
     style="stroke-width:1.15334" />
  <path
     class="cls-2"
     d="m 605.23158,320.70882 a 29.75452,30.221008 0 1 0 41.82798,4.48666 29.75452,30.221008 0 0 0 -41.82798,-4.48666 z m 29.62863,40.04284 c -23.52896,19.32982 -53.03171,-17.72579 -29.51419,-37.05561 23.51751,-19.32982 53.03171,17.76066 29.51419,37.05561 z"
     id="path875"
     style="stroke-width:1.15334" />
  <path
     class="cls-2"
     d="m 1561.3016,1447.3131 a 76.263125,77.458769 0 0 0 -6.546,-125.3009 q -9.6931,9.1709 -19.8554,18.0047 c 38.9097,13.5763 63.3542,70.0198 21.5377,104.3904 -43.6247,35.8351 -95.3175,-4.9749 -96.3932,-48.5629 q -9.9907,6.3465 -20.153,12.2628 a 76.297457,77.493639 0 0 0 121.4099,39.2059 z"
     id="path877"
     style="stroke-width:1.15334" />
</svg>
